<?xml version="1.0" encoding="utf-8"?>
<!-- Generator: Adobe Illustrator 20.1.0, SVG Export Plug-In . SVG Version: 6.00 Build 0)  -->
<svg version="1.1" id="Layer_1" xmlns="http://www.w3.org/2000/svg" xmlns:xlink="http://www.w3.org/1999/xlink" x="0px" y="0px"
	 viewBox="0 0 360 360" style="enable-background:new 0 0 360 360;" xml:space="preserve">
<style type="text/css">
	.st0{fill:none;stroke:#FF0000;stroke-width:0.25;stroke-linecap:round;stroke-linejoin:round;}
	.st1{fill:#FFFFFF;stroke:#FF0000;stroke-width:0.25;stroke-linecap:round;stroke-linejoin:round;}
</style>
<path id="path3132" inkscape:connector-curvature="0" sodipodi:nodetypes="cccccccccc" class="st0" d="M39.9,255.6h187.2v-7.2
	l7.2-7.2v-93.6l-7.2-7.2V108l-3.6-3.6H39.9L39.9,255.6z"/>
<path id="path4253" sodipodi:cx="119.25381" sodipodi:cy="339.31631" sodipodi:rx="2.4961903" sodipodi:ry="2.4961903" sodipodi:type="arc" class="st1" d="
	M231.6,234c0,2.5-2,4.5-4.5,4.5s-4.5-2-4.5-4.5s2-4.5,4.5-4.5C229.6,229.5,231.6,231.5,231.6,234z"/>
<path id="path4371" sodipodi:cx="119.25381" sodipodi:cy="339.31631" sodipodi:rx="2.4961903" sodipodi:ry="2.4961903" sodipodi:type="arc" class="st1" d="
	M231.6,154.8c0,2.5-2,4.5-4.5,4.5s-4.5-2-4.5-4.5c0-2.5,2-4.5,4.5-4.5C229.6,150.3,231.6,152.3,231.6,154.8z"/>
<path id="path4355" sodipodi:cx="119.25381" sodipodi:cy="339.31631" sodipodi:rx="2.4961903" sodipodi:ry="2.4961903" sodipodi:type="arc" class="st1" d="
	M87.6,111.6c0,2.5-2,4.5-4.5,4.5c-2.5,0-4.5-2-4.5-4.5s2-4.5,4.5-4.5C85.6,107.1,87.6,109.1,87.6,111.6z"/>
<path id="path4554" sodipodi:cx="119.25381" sodipodi:cy="339.31631" sodipodi:rx="2.4961903" sodipodi:ry="2.4961903" sodipodi:type="arc" class="st1" d="
	M84,248.4c0,2.5-2,4.5-4.5,4.5c-2.5,0-4.5-2-4.5-4.5s2-4.5,4.5-4.5C82,243.9,84,245.9,84,248.4z"/>
</svg>
